<?xml version="1.0" standalone="no"?>
<!DOCTYPE svg PUBLIC "-//W3C//DTD SVG 20010904//EN"
 "http://www.w3.org/TR/2001/REC-SVG-20010904/DTD/svg10.dtd">
<svg version="1.0" xmlns="http://www.w3.org/2000/svg"
 width="650.000000pt" height="650.000000pt" viewBox="0 0 650.000000 650.000000"
 preserveAspectRatio="xMidYMid meet">

<g transform="translate(0.000000,650.000000) scale(0.100000,-0.100000)"
fill="#000000" stroke="none">
<path d="M5393 4673 c-197 -2 -313 -7 -313 -13 0 -6 -75 -10 -199 -10 -164 0
-201 -3 -211 -15 -7 -8 -28 -15 -47 -15 -21 0 -36 -6 -39 -15 -5 -12 -26 -15
-99 -15 -73 0 -94 -3 -99 -15 -4 -12 -26 -15 -104 -15 -54 0 -102 -4 -107 -9
-11 -9 -131 -22 -203 -21 -36 1 -44 -3 -52 -25 -9 -23 -15 -25 -65 -25 -37 0
-62 -5 -71 -15 -15 -14 -83 -21 -161 -16 -26 2 -32 -2 -35 -21 -3 -21 -9 -23
-65 -26 -38 -2 -66 -8 -73 -17 -8 -10 -32 -15 -69 -15 -48 0 -61 -4 -81 -25
-16 -17 -34 -25 -56 -25 -17 0 -37 -7 -44 -15 -8 -10 -31 -15 -70 -15 -39 0
-62 -5 -70 -15 -7 -9 -29 -15 -53 -15 -30 0 -46 -6 -63 -25 -13 -14 -33 -25
-46 -25 -13 0 -36 -7 -51 -15 -15 -8 -46 -16 -69 -19 -23 -3 -45 -12 -50 -20
-5 -9 -16 -16 -24 -16 -23 0 -115 -41 -149 -66 -17 -13 -57 -33 -90 -45 -33
-12 -67 -28 -76 -36 -8 -7 -25 -13 -38 -13 -14 0 -25 -9 -31 -25 -7 -19 -17
-25 -39 -25 -15 0 -34 -7 -41 -15 -7 -8 -25 -15 -41 -15 -19 0 -34 -8 -45 -25
-9 -14 -22 -25 -29 -25 -8 0 -20 -6 -28 -14 -8 -8 -27 -16 -43 -18 -19 -2 -33
-11 -39 -26 -5 -13 -20 -25 -32 -28 -12 -3 -27 -12 -34 -20 -6 -8 -19 -14 -28
-14 -9 0 -32 -18 -51 -40 -20 -23 -44 -40 -56 -40 -12 0 -24 -7 -28 -15 -3 -9
-19 -15 -41 -15 -27 0 -35 -4 -35 -18 0 -22 -40 -62 -61 -62 -8 0 -32 -18 -54
-40 -21 -21 -47 -40 -59 -42 -11 -2 -22 -12 -24 -23 -6 -28 -32 -55 -54 -55
-10 0 -21 -7 -24 -15 -4 -8 -15 -15 -25 -15 -11 0 -23 -10 -28 -23 -5 -13 -41
-54 -80 -92 -39 -37 -71 -74 -71 -82 0 -7 -18 -33 -40 -57 -22 -24 -40 -50
-40 -58 0 -8 -11 -25 -25 -38 -14 -13 -25 -31 -25 -41 0 -9 -13 -29 -30 -42
-16 -14 -30 -33 -30 -42 0 -9 -11 -26 -25 -39 -16 -15 -25 -34 -25 -53 0 -17
-7 -36 -15 -43 -8 -7 -15 -25 -15 -40 0 -15 -7 -33 -15 -40 -10 -8 -15 -30
-15 -61 0 -26 -5 -51 -10 -54 -6 -3 -10 -22 -10 -41 0 -42 -25 -56 -46 -26
-15 22 -44 20 -44 -2 0 -7 9 -31 20 -54 24 -50 27 -112 5 -112 -21 0 -19 -17
5 -30 35 -19 51 -55 54 -124 1 -36 7 -71 14 -78 7 -7 12 -27 12 -45 0 -21 6
-36 15 -39 8 -4 15 -16 15 -29 0 -13 7 -25 15 -29 9 -3 15 -18 15 -40 0 -27 8
-41 40 -70 22 -20 40 -44 40 -54 0 -11 13 -29 30 -42 18 -14 30 -32 30 -46 0
-17 6 -24 20 -24 23 0 60 -33 60 -55 0 -22 37 -55 60 -55 13 0 20 -7 20 -20 0
-23 33 -60 55 -60 8 0 32 -18 54 -40 21 -22 45 -40 53 -40 14 0 71 -53 69 -64
-3 -21 2 -26 29 -26 17 0 40 -5 53 -12 12 -6 28 -14 36 -18 18 -8 24 -19 52
-95 47 -130 82 -202 136 -283 121 -182 373 -407 582 -520 106 -57 196 -102
205 -102 5 0 52 -21 103 -46 51 -25 99 -44 106 -41 9 3 13 24 12 71 -1 53 -5
69 -20 81 -11 8 -23 15 -28 15 -17 0 -168 119 -240 189 -108 105 -209 256
-238 356 -4 17 -15 55 -24 85 -23 77 -26 136 -9 198 49 178 229 353 514 501
36 19 72 38 80 42 8 5 42 20 75 34 33 14 73 32 88 40 16 8 33 15 39 15 5 0 24
7 41 15 34 16 129 49 187 66 19 6 49 16 65 24 17 7 48 17 70 21 22 3 51 12 65
19 14 7 43 15 65 19 22 4 60 14 85 21 56 18 163 43 255 60 39 8 93 18 120 24
124 25 283 51 310 51 17 0 62 9 100 20 38 11 91 20 117 20 60 0 122 25 135 53
6 13 23 37 38 55 14 17 37 51 49 74 85 159 112 207 136 238 29 37 140 217 140
226 0 4 14 26 30 51 17 24 38 58 47 76 37 71 32 186 -9 208 -25 13 -255 4
-383 -16 -49 -8 -128 -17 -175 -20 -47 -3 -123 -12 -170 -20 -88 -15 -214 -36
-361 -59 -47 -7 -94 -18 -105 -23 -10 -6 -45 -13 -77 -17 -32 -3 -74 -13 -94
-21 -19 -8 -47 -15 -62 -15 -14 -1 -44 -8 -66 -16 -22 -9 -67 -21 -100 -29
-33 -7 -73 -18 -90 -23 -33 -12 -105 -35 -175 -56 -69 -21 -111 -36 -155 -57
-22 -11 -46 -19 -54 -19 -8 0 -35 -9 -60 -21 -25 -11 -64 -29 -86 -39 -83 -36
-359 -175 -389 -195 -17 -11 -38 -24 -46 -28 -43 -21 -165 -105 -260 -181
-212 -168 -387 -381 -459 -556 -12 -30 -26 -64 -31 -75 -6 -11 -17 -47 -25
-79 -8 -33 -19 -64 -23 -68 -9 -9 -82 74 -82 92 0 6 -11 23 -25 38 -14 15 -25
35 -25 45 0 10 -7 20 -15 23 -9 4 -15 19 -15 39 0 18 -7 38 -15 45 -11 9 -15
34 -15 95 0 61 4 86 15 95 8 7 15 28 15 47 0 21 6 36 15 39 8 4 15 16 15 29 0
13 7 25 15 29 8 3 15 14 15 24 0 10 11 29 25 42 14 13 25 31 25 40 0 9 13 29
30 45 16 16 30 35 30 42 0 19 64 83 83 83 9 0 19 9 22 21 10 30 42 59 65 59
14 0 20 7 20 23 0 24 31 57 55 57 16 0 29 18 30 40 0 8 9 16 20 18 11 2 27 10
35 17 8 7 24 15 35 17 12 2 20 11 20 23 0 13 8 21 22 23 12 2 27 10 33 18 7 8
20 14 30 14 10 0 23 7 30 15 7 8 21 15 31 15 14 0 19 7 19 25 0 20 5 25 25 25
13 0 28 6 32 14 4 8 21 16 38 18 21 2 34 11 43 31 7 15 21 27 32 27 10 0 22 5
25 10 3 6 19 10 34 10 31 0 51 16 51 42 0 13 8 18 25 18 14 0 28 7 31 15 4 9
19 15 39 15 19 0 37 5 40 10 3 6 18 10 33 10 47 0 70 11 76 36 5 19 13 24 40
24 18 0 39 7 46 14 6 8 33 16 58 18 40 3 47 6 50 26 3 18 10 22 36 22 19 0 39
7 46 15 7 9 29 15 55 15 33 0 48 6 71 30 24 24 37 29 76 30 26 0 50 5 53 10 3
6 32 10 64 10 39 0 63 5 71 15 7 8 34 15 68 17 51 3 58 6 70 31 13 26 16 27
87 27 41 0 77 5 80 10 3 6 30 10 58 10 90 0 128 10 138 36 8 23 13 24 93 24
62 0 87 4 96 15 10 12 37 15 128 15 109 0 135 4 225 36 24 9 84 14 171 14 106
0 136 3 146 15 10 12 53 15 238 17 223 3 226 3 232 25 3 12 22 36 43 54 23 19
37 40 37 54 0 13 13 34 30 48 17 15 30 36 30 48 0 12 11 37 25 55 14 18 25 39
25 46 0 8 14 27 30 43 17 16 30 35 30 43 0 8 11 25 25 38 14 13 25 32 25 42 0
11 7 22 15 26 8 3 15 16 15 30 0 13 7 26 15 30 8 3 15 14 15 24 0 10 11 29 25
42 14 13 25 31 25 41 0 9 14 29 30 42 17 14 30 32 30 39 0 7 11 25 24 39 13
14 27 40 31 58 4 21 15 35 31 41 23 9 24 14 24 99 0 101 -1 103 -78 99 -26 -2
-188 -4 -359 -5z"/>
<path d="M3142 1637 c-12 -13 -22 -26 -22 -29 0 -3 -44 -72 -98 -154 -54 -82
-123 -187 -154 -234 -30 -47 -91 -139 -134 -205 -43 -66 -81 -124 -84 -130
-11 -22 -65 -101 -84 -122 -11 -13 -16 -26 -12 -30 9 -9 1429 -17 1463 -8 15
3 51 56 124 182 56 98 128 222 161 276 32 54 58 100 58 102 0 2 25 45 55 95
30 50 55 93 55 96 0 2 23 41 50 85 28 44 48 85 44 90 -3 5 -293 9 -703 9
l-698 0 -21 -23z"/>
</g>
</svg>
